HIERARCHY
ROOT Hips
{
	OFFSET 0.000000 0.000000 0.000000
	CHANNELS 6 Xposition Yposition Zposition Xrotation Yrotation Zrotation
	JOINT LeftUpLeg_virtual
	{
		OFFSET 0.000000 0.000000 0.000000
		CHANNELS 3 Xrotation Yrotation Zrotation
		JOINT LeftUpLeg
		{
			OFFSET 13.026900 -6.336304 -1.092800
			CHANNELS 3 Xrotation Yrotation Zrotation
			JOINT LeftLeg
			{
				OFFSET 0.524474 -46.096886 9.782700
				CHANNELS 3 Xrotation Yrotation Zrotation
				JOINT LeftFoot
				{
					OFFSET -0.524474 -53.427422 -12.948200
					CHANNELS 3 Xrotation Yrotation Zrotation
					JOINT LeftToeBase
					{
						OFFSET 0.192200 -14.009700 16.364100
						CHANNELS 3 Xrotation Yrotation Zrotation
						JOINT LeftToe_End
						{
							OFFSET -1.784700 -0.561700 9.474800
							CHANNELS 3 Xrotation Yrotation Zrotation
							End Site
							{
								OFFSET 0 0 0
							}
						}
					}
				}
			}
		}
	}
	JOINT RightUpLeg_virtual
	{
		OFFSET 0.000000 0.000000 0.000000
		CHANNELS 3 Xrotation Yrotation Zrotation
		JOINT RightUpLeg
		{
			OFFSET -12.883000 -6.336304 -1.092800
			CHANNELS 3 Xrotation Yrotation Zrotation
			JOINT RightLeg
			{
				OFFSET -0.524587 -46.096825 9.782800
				CHANNELS 3 Xrotation Yrotation Zrotation
				JOINT RightFoot
				{
					OFFSET 0.524587 -53.427383 -12.948300
					CHANNELS 3 Xrotation Yrotation Zrotation
					JOINT RightToeBase
					{
						OFFSET -0.192200 -14.009700 16.364100
						CHANNELS 3 Xrotation Yrotation Zrotation
						JOINT RightToe_End
						{
							OFFSET 1.784700 -0.561700 9.474800
							CHANNELS 3 Xrotation Yrotation Zrotation
							End Site
							{
								OFFSET 0 0 0
							}
						}
					}
				}
			}
		}
	}
	JOINT Spine_virtual
	{
		OFFSET 0.000000 0.000000 0.000000
		CHANNELS 3 Xrotation Yrotation Zrotation
		JOINT Spine
		{
			OFFSET 0.072000 7.257294 -0.789700
			CHANNELS 3 Xrotation Yrotation Zrotation
			JOINT Spine1
			{
				OFFSET 0.000000 12.508769 -0.658067
				CHANNELS 3 Xrotation Yrotation Zrotation
				JOINT Spine1_split
				{
					OFFSET 0.000000 12.508769 -0.658067
					CHANNELS 3 Xrotation Yrotation Zrotation
					JOINT Spine2
					{
						OFFSET 0.000000 12.508769 -0.658067
						CHANNELS 3 Xrotation Yrotation Zrotation
						JOINT Neck_virtual
						{
							OFFSET 0.000000 0.000000 0.000000
							CHANNELS 3 Xrotation Yrotation Zrotation
							JOINT Neck
							{
								OFFSET 0.000000 14.033295 7.520400
								CHANNELS 3 Xrotation Yrotation Zrotation
								JOINT Head
								{
									OFFSET 0.000000 8.198502 5.703100
									CHANNELS 3 Xrotation Yrotation Zrotation
									JOINT HeadTop_End
									{
										OFFSET 0.000000 17.760803 13.332701
										CHANNELS 3 Xrotation Yrotation Zrotation
										End Site
										{
											OFFSET 0 0 0
										}
									}
								}
							}
						}
						JOINT LeftShoulder_virtual
						{
							OFFSET 0.000000 0.000000 0.000000
							CHANNELS 3 Xrotation Yrotation Zrotation
							JOINT LeftShoulder
							{
								OFFSET 6.292450 5.785301 -0.669000
								CHANNELS 3 Xrotation Yrotation Zrotation
								JOINT LeftShoulder_split
								{
									OFFSET 6.292450 5.785301 -0.669000
									CHANNELS 3 Xrotation Yrotation Zrotation
									JOINT LeftArm
									{
										OFFSET 13.907140 -6.093903 1.965100
										CHANNELS 3 Xrotation Yrotation Zrotation
										JOINT LeftForeArm
										{
											OFFSET 34.140198 0.000000 0.000000
											CHANNELS 3 Xrotation Yrotation Zrotation
											JOINT LeftHand
											{
												OFFSET 40.960209 0.000000 0.000000
												CHANNELS 3 Xrotation Yrotation Zrotation
												End Site
												{
													OFFSET 0 0 0
												}
											}
										}
									}
								}
							}
						}
						JOINT RightShoulder_virtual
						{
							OFFSET 0.000000 0.000000 0.000000
							CHANNELS 3 Xrotation Yrotation Zrotation
							JOINT RightShoulder
							{
								OFFSET -6.292450 5.785301 -0.669000
								CHANNELS 3 Xrotation Yrotation Zrotation
								JOINT RightShoulder_split
								{
									OFFSET -6.292450 5.785301 -0.669000
									CHANNELS 3 Xrotation Yrotation Zrotation
									JOINT RightArm
									{
										OFFSET -13.907140 -6.093903 1.965100
										CHANNELS 3 Xrotation Yrotation Zrotation
										JOINT RightForeArm
										{
											OFFSET -34.140198 0.000000 0.000000
											CHANNELS 3 Xrotation Yrotation Zrotation
											JOINT RightHand
											{
												OFFSET -40.960209 0.000000 0.000000
												CHANNELS 3 Xrotation Yrotation Zrotation
												End Site
												{
													OFFSET 0 0 0
												}
											}
										}
									}
								}
							}
						}
					}
				}
			}
		}
	}
}
MOTION
Frames: 4
Frame Time: 0.03333333
-0.233272 116.261894 0.378372 0.000000 0.000000 0.000000 -7.164287 -4.400769 3.760680 -9.718188 11.661916 5.296109 12.429787 7.470608 1.350551 5.811176 0.274716 -6.526148 -0.000001 -0.000003 -0.000001 0.000000 0.000000 0.000000 -7.164287 -4.400769 3.760680 2.819148 -15.351041 -7.455290 19.202189 -9.119184 -3.385386 -14.949247 -5.608821 7.967904 -2.342332 0.000026 0.000003 0.000000 0.000000 0.000000 -7.164287 -4.400769 3.760680 5.302350 2.186046 -2.870170 1.478231 0.730365 -0.788770 0.000000 0.000000 0.000000 0.000000 0.000000 0.000000 1.440798 0.721971 -0.741220 2.260305 5.360285 1.627123 3.299470 -10.639883 2.336762 0.000000 0.000000 0.000000 1.440798 0.721971 -0.741220 -0.595444 -16.332000 -20.041826 0.000000 0.000000 0.000000 11.139995 0.583282 -33.762400 0.009360 -89.546294 0.008808 0.000000 0.000000 0.000000 1.440798 0.721971 -0.741220 0.754162 18.436591 11.539481 0.000000 0.000000 0.000000 10.691747 23.557089 38.362195 179.999827 82.036098 -179.999827 0.000000 0.000000 0.000000 
0.159534 115.643707 0.290565 0.000000 0.000000 0.000000 -6.999193 -4.707494 3.772964 -11.091621 11.548865 5.265089 14.574092 7.063222 1.405288 4.887967 1.090473 -6.522251 -0.000051 -0.000003 -0.000001 0.000000 0.000000 0.000000 -6.999193 -4.707494 3.772964 1.475580 -15.052723 -8.016524 21.074873 -8.910929 -3.377919 -15.622041 -5.682530 8.220030 -2.342333 0.000023 0.000003 0.000000 0.000000 0.000000 -6.999193 -4.707494 3.772964 5.296626 2.051550 -2.863888 1.478230 0.545823 -0.771255 0.000000 0.000000 0.000000 0.000000 0.000000 0.000000 1.440799 0.547799 -0.686543 2.278949 5.079157 1.446695 3.068805 -10.293893 2.008880 0.000000 0.000000 0.000000 1.440799 0.547799 -0.686543 -0.595444 -16.331998 -20.041826 0.000000 0.000000 0.000000 11.673893 1.386658 -33.751079 -0.455405 -90.000003 -0.466611 0.000000 0.000000 0.000000 1.440799 0.547799 -0.686543 0.748014 18.465153 11.541428 0.000000 0.000000 0.000000 10.484204 24.073589 38.792961 179.999827 82.426217 -179.999841 0.000000 0.000000 0.000000 
0.500003 115.106422 0.183262 0.000000 0.000000 0.000000 -6.832248 -5.009405 3.832040 -12.238493 11.475292 5.166665 16.298298 6.583306 1.443443 4.170719 1.965401 -6.489898 -0.000036 -0.000002 0.000003 0.000000 0.000000 0.000000 -6.832248 -5.009405 3.832040 0.254590 -14.760092 -8.548614 22.692127 -8.714552 -3.370038 -16.180262 -5.738853 8.424492 -2.342333 0.000022 0.000004 0.000000 0.000000 0.000000 -6.832248 -5.009405 3.832040 5.293022 1.932581 -2.900273 1.478231 0.373632 -0.754921 0.000000 0.000000 0.000000 0.000000 0.000000 0.000000 1.440799 0.385385 -0.635565 2.296011 4.796858 1.267086 2.850220 -9.940148 1.700443 0.000000 0.000000 0.000000 1.440799 0.385385 -0.635565 -0.595444 -16.332000 -20.041826 0.000000 0.000000 0.000000 12.260832 2.275648 -33.762633 -179.931676 -89.544572 -179.931621 0.000000 0.000000 0.000000 1.440799 0.385385 -0.635565 0.745094 18.495003 11.543410 0.000000 0.000000 0.000000 10.252230 24.630852 39.267451 179.999841 82.846889 -179.999814 0.000000 0.000000 0.000000 
0.868566 114.587341 0.080212 0.000000 0.000000 0.000000 -6.665296 -5.323569 3.901962 -13.313177 11.425785 5.026168 17.904537 6.065872 1.473633 3.499913 2.891029 -6.416097 -0.000067 0.000003 -0.000001 0.000000 0.000000 0.000000 -6.665296 -5.323569 3.901962 -0.923754 -14.463996 -9.091829 24.214265 -8.496544 -3.359188 -16.685138 -5.790765 8.630331 -2.342333 0.000023 0.000003 0.000000 0.000000 0.000000 -6.665296 -5.323569 3.901962 5.289756 1.800974 -2.950214 1.476995 0.189088 -0.737423 0.000000 0.000000 0.000000 0.000000 0.000000 0.000000 1.440798 0.211210 -0.580904 2.311595 4.515614 1.086977 2.627178 -9.591969 1.375070 0.000000 0.000000 0.000000 1.440798 0.211210 -0.580904 -0.595444 -16.331998 -20.041826 0.000000 0.000000 0.000000 12.881842 3.223692 -33.784960 -179.993311 -89.027629 -179.993462 0.000000 0.000000 0.000000 1.440798 0.211210 -0.580904 0.747686 18.526431 11.539872 0.000000 0.000000 0.000000 9.993135 25.212708 39.777318 179.999472 83.290537 -179.999472 0.000000 0.000000 0.000000 
